<svg width="44" height="32" version="1.1" xmlns="http://www.w3.org/2000/svg" desc="Created with imagetracer.js version 1.2.6" ><path fill="rgb(255,255,255)" stroke="rgb(255,255,255)" stroke-width="1" opacity="1" d="M 16.5 0 L 24 0.5 L 9 15.5 L 9.5 16 L 24 16 L 24 32 L 16 32 L 16 24 L 0 24 L 0 16.5 L 16.5 0 Z " /><path fill="rgb(255,255,255)" stroke="rgb(255,255,255)" stroke-width="1" opacity="1" d="M 28 0 L 44 0 L 44 8.5 L 36 16.5 L 36 22.5 L 36.5 23 L 43.5 16 L 44 16.5 L 44 24 L 28 24 L 28 15.5 L 36 7.5 L 36 1.5 L 35.5 1 L 28.5 8 L 28 7.5 L 28 0 Z " /><path fill="rgb(0,0,0)" stroke="rgb(0,0,0)" stroke-width="1" opacity="0" d="M 0 0 L 16 0.5 L 0.5 16 L 0 15.5 L 0 0 Z " /><path fill="rgb(0,0,0)" stroke="rgb(0,0,0)" stroke-width="1" opacity="0" d="M 24.5 0 L 28 0 L 28 7.5 L 28.5 8 L 35.5 1 L 36 1.5 L 36 7.5 L 28 15.5 L 28 24 L 44 24 L 44 32 L 24 32 L 24 16 L 9.5 16 L 9 15.5 L 24.5 0 Z " /><path fill="rgb(0,0,0)" stroke="rgb(0,0,0)" stroke-width="1" opacity="0" d="M 43.5 9 L 44 15.5 L 36.5 23 L 36 22.5 L 36 16.5 L 43.5 9 Z " /><path fill="rgb(0,0,0)" stroke="rgb(0,0,0)" stroke-width="1" opacity="0" d="M 0 24 L 16 24 L 16 32 L 0 32 L 0 24 Z " /></svg>