<svg width="500" height="140" version="1.1" xmlns="http://www.w3.org/2000/svg" desc="Created with imagetracer.js version 1.2.6" ><path fill="rgb(0,0,0)" stroke="rgb(0,0,0)" stroke-width="1" opacity="0" d="M 0 0 L 499.5 0 L 500 0.5 L 500 140 L 0.5 140 L 0 139.5 L 0 0 Z M 20 20 L 20 120 L 40 120 L 40 80 L 120 80 L 120 20 L 20 20 Z M 140 20 L 140 120 L 240 120 L 240 20 L 140 20 Z M 260 20 L 260 120 L 280 120 L 280 60 L 300 60 L 300 40 L 280 40 L 280 20 L 260 20 Z M 340 20 L 340 80 L 320 80 L 320 100 L 340 100 L 340 120 L 360 120 L 360 21 L 360 20 L 340 20 Z M 380 20 L 380 120 L 480 120 L 480 60 L 420 60 L 420 80 L 460 80 L 460 100 L 400 100 L 400 40 L 480 40 L 480 21 L 480 20 L 380 20 Z M 300 60 L 300 80 L 320 80 L 320 60 L 300 60 Z " /><path fill="rgb(0,0,0)" stroke="rgb(0,0,0)" stroke-width="1" opacity="0" d="M 40 40 L 100 40 L 100 60 L 40 60 L 40 40 Z " /><path fill="rgb(0,0,0)" stroke="rgb(0,0,0)" stroke-width="1" opacity="0" d="M 160 40 L 220 40 L 220 100 L 160 100 L 160 40 Z " /><path fill="rgb(255,255,255)" stroke="rgb(255,255,255)" stroke-width="1" opacity="1" d="M 20 20 L 120 20 L 120 80 L 40 80 L 40 120 L 20 120 L 20 20 Z M 40 40 L 40 60 L 100 60 L 100 40 L 40 40 Z " /><path fill="rgb(255,255,255)" stroke="rgb(255,255,255)" stroke-width="1" opacity="1" d="M 140 20 L 240 20 L 240 120 L 140 120 L 140 20 Z M 160 40 L 160 100 L 220 100 L 220 40 L 160 40 Z " /><path fill="rgb(255,255,255)" stroke="rgb(255,255,255)" stroke-width="1" opacity="1" d="M 260 20 L 280 20 L 280 40 L 300 40 L 300 60 L 320 60 L 320 80 L 340 80 L 340 20 L 360 20 L 360 119.5 L 359.5 120 L 340 120 L 340 100 L 320 100 L 320 80 L 300 80 L 300 60 L 280 60 L 280 120 L 260 120 L 260 20 Z " /><path fill="rgb(255,255,255)" stroke="rgb(255,255,255)" stroke-width="1" opacity="1" d="M 380 20 L 479.5 20 L 480 20.5 L 480 40 L 400 40 L 400 100 L 460 100 L 460 80 L 420 80 L 420 60 L 480 60 L 480 120 L 380 120 L 380 20 Z " /></svg>