<?xml version="1.0" standalone="no"?>
<svg xmlns:xlink="http://www.w3.org/1999/xlink" id="wave" style="transform:rotate(180deg); transition: 0.3s" viewBox="0 0 1440 490" version="1.1" xmlns="http://www.w3.org/2000/svg"><defs><linearGradient id="sw-gradient-0" x1="0" x2="0" y1="1" y2="0"><stop stop-color="rgba(255, 255, 255, 1)" offset="0%"/><stop stop-color="rgba(236, 240, 255, 1)" offset="100%"/></linearGradient></defs><path style="transform:translate(0, 0px); opacity:1" fill="url(#sw-gradient-0)" d="M0,196L40,204.2C80,212,160,229,240,212.3C320,196,400,147,480,106.2C560,65,640,33,720,16.3C800,0,880,0,960,65.3C1040,131,1120,261,1200,334.8C1280,408,1360,425,1440,424.7C1520,425,1600,408,1680,351.2C1760,294,1840,196,1920,155.2C2000,114,2080,131,2160,122.5C2240,114,2320,82,2400,122.5C2480,163,2560,278,2640,318.5C2720,359,2800,327,2880,302.2C2960,278,3040,261,3120,245C3200,229,3280,212,3360,196C3440,180,3520,163,3600,155.2C3680,147,3760,147,3840,163.3C3920,180,4000,212,4080,187.8C4160,163,4240,82,4320,40.8C4400,0,4480,0,4560,32.7C4640,65,4720,131,4800,138.8C4880,147,4960,98,5040,130.7C5120,163,5200,278,5280,302.2C5360,327,5440,261,5520,253.2C5600,245,5680,294,5720,318.5L5760,343L5760,490L5720,490C5680,490,5600,490,5520,490C5440,490,5360,490,5280,490C5200,490,5120,490,5040,490C4960,490,4880,490,4800,490C4720,490,4640,490,4560,490C4480,490,4400,490,4320,490C4240,490,4160,490,4080,490C4000,490,3920,490,3840,490C3760,490,3680,490,3600,490C3520,490,3440,490,3360,490C3280,490,3200,490,3120,490C3040,490,2960,490,2880,490C2800,490,2720,490,2640,490C2560,490,2480,490,2400,490C2320,490,2240,490,2160,490C2080,490,2000,490,1920,490C1840,490,1760,490,1680,490C1600,490,1520,490,1440,490C1360,490,1280,490,1200,490C1120,490,1040,490,960,490C880,490,800,490,720,490C640,490,560,490,480,490C400,490,320,490,240,490C160,490,80,490,40,490L0,490Z"/></svg>